<svg width="30" height="30" viewBox="0 0 30 30" fill="none" xmlns="http://www.w3.org/2000/svg">
<g clip-path="url(#clip0_47_3694)">
<path d="M9.78643 18.1254C7.43564 18.2766 5.30225 19.1719 4.0917 22.3617C3.954 22.7256 3.62295 22.9465 3.23682 22.9465C2.58584 22.9465 0.573145 21.3252 -0.000488281 20.9338C9.76562e-05 25.759 2.22256 30 7.5001 30C11.945 30 15.0001 27.4354 15.0001 22.9576C15.0001 22.7754 14.962 22.6014 14.9433 22.4227L9.78643 18.1254ZM26.8296 0C25.9413 0 25.1087 0.393164 24.4735 0.963867C12.4964 11.6631 11.2501 11.9145 11.2501 15.0639C11.2501 15.8666 11.4405 16.6318 11.7616 17.3314L15.5011 20.4475C15.9235 20.5529 16.3589 20.625 16.813 20.625C20.4522 20.625 22.5616 17.9607 29.1856 5.59805C29.6181 4.75723 30.0001 3.84902 30.0001 2.90332C30.0001 1.20937 28.4767 0 26.8296 0Z" fill="#1B1B1B"/>
</g>
<defs>
<clipPath id="clip0_47_3694">
<rect width="30" height="30" fill="white"/>
</clipPath>
</defs>
</svg>
