<svg width="16" height="16" viewBox="0 0 16 16" fill="none" xmlns="http://www.w3.org/2000/svg">
<path d="M15.4186 0.768722L12.1686 0.0187217C11.8155 -0.0625283 11.453 0.121847 11.3092 0.453097L9.80921 3.9531C9.67796 4.25935 9.76546 4.61872 10.0248 4.8281L11.9186 6.3781C10.7936 8.77497 8.82796 10.7687 6.38109 11.9156L4.83109 10.0218C4.61859 9.76247 4.26234 9.67497 3.95609 9.80622L0.456087 11.3062C0.121712 11.4531 -0.0626628 11.8156 0.0185872 12.1687L0.768587 15.4187C0.846712 15.7562 1.14671 16 1.49984 16C9.50296 16 15.9998 9.5156 15.9998 1.49997C15.9998 1.14997 15.7592 0.846847 15.4186 0.768722Z" fill="#030303"/>
</svg>
