<svg width="30" height="30" viewBox="0 0 30 30" fill="none" xmlns="http://www.w3.org/2000/svg">
<g clip-path="url(#clip0_47_3688)">
<path d="M11.7188 16.875H5.15625C3.90234 16.875 3.27539 18.3867 4.16016 19.2773L6.08789 21.0938L0.275391 26.9121C-0.0878906 27.2754 -0.0878906 27.873 0.275391 28.2363L1.76367 29.7246C2.12695 30.0879 2.72461 30.0879 3.08789 29.7246L8.90625 23.9062L10.7285 25.8398C11.6133 26.7246 13.125 26.0977 13.125 24.8438V18.2812C13.125 17.502 12.498 16.875 11.7188 16.875ZM18.2812 13.125H24.8438C26.0977 13.125 26.7246 11.6074 25.8398 10.7227L23.9062 8.90625L29.7246 3.08789C30.0879 2.72461 30.0879 2.12695 29.7246 1.76367L28.2363 0.275391C27.873 -0.0878906 27.2754 -0.0878906 26.9121 0.275391L21.0938 6.09375L19.2715 4.16016C18.3867 3.27539 16.875 3.90234 16.875 5.15625V11.7188C16.875 12.498 17.502 13.125 18.2812 13.125ZM23.9062 21.0938L25.8398 19.2715C26.7246 18.3867 26.0977 16.875 24.8438 16.875H18.2812C17.502 16.875 16.875 17.502 16.875 18.2812V24.8438C16.875 26.0977 18.3926 26.7246 19.2773 25.8398L21.0938 23.9121L26.9121 29.7305C27.2754 30.0938 27.873 30.0938 28.2363 29.7305L29.7246 28.2422C30.0879 27.8789 30.0879 27.2812 29.7246 26.918L23.9062 21.0938ZM10.7227 4.16602L8.90625 6.09375L3.08789 0.275391C2.72461 -0.0878906 2.12695 -0.0878906 1.76367 0.275391L0.275391 1.76367C-0.0878906 2.12695 -0.0878906 2.72461 0.275391 3.08789L6.09375 8.90625L4.16016 10.7285C3.27539 11.6133 3.90234 13.125 5.15625 13.125H11.7188C12.498 13.125 13.125 12.498 13.125 11.7188V5.15625C13.125 3.9082 11.6074 3.28125 10.7227 4.16602Z" fill="#1B1B1B"/>
</g>
<defs>
<clipPath id="clip0_47_3688">
<rect width="30" height="30" fill="white"/>
</clipPath>
</defs>
</svg>
