<svg width="36" height="26" viewBox="0 0 36 26" fill="none" xmlns="http://www.w3.org/2000/svg">
<path d="M34.3406 17.7981C34.4869 17.005 34.4869 16.195 34.3406 15.4019L35.7919 14.5638C35.9606 14.4681 36.0337 14.2713 35.9775 14.0856C35.6006 12.8706 34.9537 11.7681 34.11 10.8569C33.9806 10.7163 33.7725 10.6825 33.6037 10.7781L32.1525 11.6163C31.5394 11.0931 30.8362 10.6881 30.0769 10.4181V8.74189C30.0769 8.55064 29.9419 8.38189 29.7562 8.34251C28.5019 8.06126 27.225 8.07252 26.0325 8.34251C25.8469 8.38189 25.7119 8.55064 25.7119 8.74189V10.4181C24.9525 10.6881 24.2494 11.0931 23.6362 11.6163L22.185 10.7781C22.0219 10.6825 21.8081 10.7163 21.6787 10.8569C20.835 11.7681 20.1881 12.8706 19.8112 14.0856C19.755 14.2713 19.8337 14.4681 19.9969 14.5638L21.4481 15.4019C21.3019 16.195 21.3019 17.005 21.4481 17.7981L19.9969 18.6363C19.8281 18.7319 19.755 18.9288 19.8112 19.1144C20.1881 20.3294 20.835 21.4263 21.6787 22.3431C21.8081 22.4838 22.0162 22.5175 22.185 22.4219L23.6362 21.5838C24.2494 22.1069 24.9525 22.5119 25.7119 22.7819V24.4581C25.7119 24.6494 25.8469 24.8181 26.0325 24.8575C27.2869 25.1388 28.5637 25.1275 29.7562 24.8575C29.9419 24.8181 30.0769 24.6494 30.0769 24.4581V22.7819C30.8362 22.5119 31.5394 22.1069 32.1525 21.5838L33.6037 22.4219C33.7669 22.5175 33.9806 22.4838 34.11 22.3431C34.9537 21.4319 35.6006 20.3294 35.9775 19.1144C36.0337 18.9288 35.955 18.7319 35.7919 18.6363L34.3406 17.7981ZM27.9 19.3281C26.3925 19.3281 25.1719 18.1019 25.1719 16.6C25.1719 15.0981 26.3981 13.8719 27.9 13.8719C29.4019 13.8719 30.6281 15.0981 30.6281 16.6C30.6281 18.1019 29.4075 19.3281 27.9 19.3281ZM5.4 11.2C7.38562 11.2 9 9.58564 9 7.60001C9 5.61439 7.38562 4.00001 5.4 4.00001C3.41437 4.00001 1.8 5.61439 1.8 7.60001C1.8 9.58564 3.41437 11.2 5.4 11.2ZM18 13C18.1069 13 18.2081 12.9719 18.315 12.9663C18.7819 11.7456 19.4681 10.5981 20.3569 9.63626C20.7731 9.18626 21.3637 8.92751 21.9825 8.92751C22.3706 8.92751 22.7531 9.02876 23.085 9.22564L23.5294 9.48439C23.5744 9.45626 23.6194 9.43376 23.6644 9.40564C24.0581 8.58439 24.2944 7.67314 24.2944 6.70564C24.2944 3.22376 21.4762 0.40564 17.9944 0.40564C14.5125 0.40564 11.7 3.21814 11.7 6.70001C11.7 10.1819 14.5181 13 18 13ZM23.9175 23.9406C23.7881 23.8731 23.6587 23.7944 23.535 23.7213C23.0737 23.9913 22.6744 24.2725 21.9881 24.2725C21.375 24.2725 20.7844 24.0138 20.3625 23.5638C19.3331 22.45 18.5456 21.0944 18.1012 19.6488C17.4994 17.7081 19.5019 16.8531 19.5525 16.8194C19.5469 16.6731 19.5469 16.5269 19.5525 16.3806L19.1081 16.1219C18.8944 15.9981 18.7144 15.8406 18.5569 15.6663C18.3712 15.6775 18.1912 15.7 18.0056 15.7C16.6219 15.7 15.3281 15.3625 14.1525 14.8H13.6856C10.1025 14.8 7.2 17.7025 7.2 21.28V22.9C7.2 24.3906 8.40937 25.6 9.9 25.6H24.2662C24.0581 25.2625 23.9175 24.88 23.9175 24.4581V23.9406ZM9.73687 14.0463C9.08437 13.3994 8.19 13 7.2 13H3.6C1.61437 13 0 14.6144 0 16.6V18.4C0 19.3956 0.804375 20.2 1.8 20.2H5.50687C5.86125 17.5338 7.47 15.2894 9.73687 14.0463Z" fill="#1B1B1B"/>
</svg>
