<svg width="36" height="30" viewBox="0 0 36 30" fill="none" xmlns="http://www.w3.org/2000/svg">
<path d="M35.1 20.4H34.2V14.3194C34.2 13.605 33.9131 12.9187 33.4069 12.4125L27.7875 6.7931C27.2812 6.28685 26.595 5.99998 25.8806 5.99998H23.4V3.29998C23.4 1.80935 22.1906 0.599976 20.7 0.599976H2.7C1.20938 0.599976 0 1.80935 0 3.29998V21.3C0 22.7906 1.20938 24 2.7 24H3.6C3.6 26.9812 6.01875 29.4 9 29.4C11.9812 29.4 14.4 26.9812 14.4 24H21.6C21.6 26.9812 24.0187 29.4 27 29.4C29.9812 29.4 32.4 26.9812 32.4 24H35.1C35.595 24 36 23.595 36 23.1V21.3C36 20.805 35.595 20.4 35.1 20.4ZM9 26.7C7.50937 26.7 6.3 25.4906 6.3 24C6.3 22.5093 7.50937 21.3 9 21.3C10.4906 21.3 11.7 22.5093 11.7 24C11.7 25.4906 10.4906 26.7 9 26.7ZM27 26.7C25.5094 26.7 24.3 25.4906 24.3 24C24.3 22.5093 25.5094 21.3 27 21.3C28.4906 21.3 29.7 22.5093 29.7 24C29.7 25.4906 28.4906 26.7 27 26.7ZM31.5 15H23.4V8.69998H25.8806L31.5 14.3194V15Z" fill="#1B1B1B"/>
</svg>
